<svg xmlns="http://www.w3.org/2000/svg" width="14.219" height="14.19" viewBox="0 0 15 15">
  <metadata><?xpacket begin="﻿" id="W5M0MpCehiHzreSzNTczkc9d"?>
<x:xmpmeta xmlns:x="adobe:ns:meta/" x:xmptk="Adobe XMP Core 5.6-c138 79.159824, 2016/09/14-01:09:01        ">
   <rdf:RDF xmlns:rdf="http://www.w3.org/1999/02/22-rdf-syntax-ns#">
      <rdf:Description rdf:about=""/>
   </rdf:RDF>
</x:xmpmeta>





















<?xpacket end="w"?></metadata>
<defs>
    <style>
      .cls-1 {
        fill: #353535;
        fill-rule: evenodd;
      }
    </style>
  </defs>
  <path id="fa-link" class="cls-1" d="M499.262,6409.21l-1.279,1.27a0.847,0.847,0,0,1-.592.23,0.793,0.793,0,0,1-.592-0.24l-1.794-1.8a0.8,0.8,0,0,1-.243-0.59,0.862,0.862,0,0,1,.287-0.64c0.017,0.02.071,0.08,0.161,0.17s0.152,0.15.187,0.19,0.09,0.07.166,0.13a0.79,0.79,0,0,0,.222.11,0.894,0.894,0,0,0,.239.03,0.826,0.826,0,0,0,.836-0.83,0.873,0.873,0,0,0-.031-0.24,0.7,0.7,0,0,0-.113-0.23c-0.055-.07-0.1-0.13-0.13-0.16s-0.1-.1-0.188-0.19-0.148-.14-0.165-0.16a0.816,0.816,0,0,1,.627-0.28,0.785,0.785,0,0,1,.592.25l1.81,1.81a0.823,0.823,0,0,1,0,1.17h0Zm-6.163-6.08c-0.017-.02-0.071-0.08-0.161-0.17s-0.152-.15-0.187-0.19-0.09-.07-0.166-0.13a0.79,0.79,0,0,0-.222-0.11,0.894,0.894,0,0,0-.239-0.03,0.812,0.812,0,0,0-.592.24,0.862,0.862,0,0,0-.213.83,0.7,0.7,0,0,0,.113.23c0.055,0.07.1,0.13,0.13,0.16s0.095,0.1.188,0.19,0.148,0.14.165,0.16a0.841,0.841,0,0,1-.627.27,0.826,0.826,0,0,1-.592-0.23l-1.81-1.82a0.823,0.823,0,0,1,0-1.17l1.279-1.27a0.833,0.833,0,0,1,.592-0.24,0.783,0.783,0,0,1,.592.25l1.793,1.8a0.8,0.8,0,0,1,.244.59,0.862,0.862,0,0,1-.287.64h0Zm7.347,3.72-1.81-1.81a2.409,2.409,0,0,0-1.776-.73,2.446,2.446,0,0,0-1.811.77l-0.766-.77a2.456,2.456,0,0,0,.766-1.82,2.417,2.417,0,0,0-.723-1.77l-1.793-1.8a2.515,2.515,0,0,0-3.543-.02l-1.28,1.27a2.508,2.508,0,0,0-.008,3.55l1.81,1.81a2.409,2.409,0,0,0,1.776.73,2.446,2.446,0,0,0,1.811-.77l0.766,0.77a2.456,2.456,0,0,0-.766,1.82,2.42,2.42,0,0,0,.722,1.77l1.794,1.8a2.515,2.515,0,0,0,3.543.02l1.28-1.27a2.508,2.508,0,0,0,.008-3.55h0Z" transform="translate(-486.969 -6398.19)"/>
</svg>
